# xmcd
#
# Track frame offsets:
#	150
#	13885
#	28236
#	41015
#	56125
#	68828
#	83863
#	95946
#	109868
#	124562
#	133497
#	149183
#	164333
#	179867
#
# Disc length: 2559 seconds
#
# Revision: 2
# Processed by: cddbd v1.5.1PL0 Copyright (c) Steve Scherf et al.
# Submitted via: EasyCDDAExtractor 7.0.5.4
#
DISCID=e309fd0e
DTITLE=Trio Parada Dura - Alma Sertaneja
DYEAR=2002
DGENRE=Country
TTITLE0=Panela Velha
TTITLE1=Soraia
TTITLE2=As Andorinhas
TTITLE3=Blusa Vermelha
TTITLE4=Espinho na Cama
TTITLE5=Castelo de Amor
TTITLE6=Soca Pilão
TTITLE7=Camisola Preta
TTITLE8=Parede e Meia
TTITLE9=Casa da Avenida
TTITLE10=Bicho Bom é Mulher
TTITLE11=A Nossa Casa
TTITLE12=Alto Astral
TTITLE13=Mineiro Não Perde Trem
EXTD=
EXTT0=
EXTT1=
EXTT2=
EXTT3=
EXTT4=
EXTT5=
EXTT6=
EXTT7=
EXTT8=
EXTT9=
EXTT10=
EXTT11=
EXTT12=
EXTT13=
PLAYORDER=
